<svg width="50" height="50" viewBox="0 0 50 50" fill="none" xmlns="http://www.w3.org/2000/svg">
<g clip-path="url(#clip0)">
<path d="M49.42 10.98C49.182 10.6794 48.8775 10.438 48.5305 10.2749C48.1835 10.1118 47.8033 10.0314 47.42 10.04L12.8 10L11.26 3.86C11.1187 3.32625 10.8046 2.85431 10.3668 2.51783C9.92901 2.18135 9.39215 1.99927 8.84 2H0V4H8.84C8.94819 4 9.05345 4.03509 9.14 4.1C9.22655 4.16491 9.28971 4.25614 9.32 4.36L16.74 34.14C16.8813 34.6738 17.1954 35.1457 17.6332 35.4822C18.071 35.8187 18.6078 36.0007 19.16 36H43.16C43.7366 36.0055 44.2969 35.8082 44.7428 35.4427C45.1888 35.0771 45.4922 34.5665 45.6 34L50 13.1C50.0728 12.7258 50.0583 12.3399 49.9577 11.9722C49.8571 11.6046 49.6731 11.265 49.42 10.98V10.98ZM26 42C26 42.7911 25.7654 43.5645 25.3259 44.2223C24.8864 44.8801 24.2616 45.3928 23.5307 45.6955C22.7998 45.9983 21.9956 46.0775 21.2196 45.9231C20.4437 45.7688 19.731 45.3878 19.1716 44.8284C18.6122 44.269 18.2312 43.5563 18.0769 42.7804C17.9225 42.0044 18.0017 41.2002 18.3045 40.4693C18.6072 39.7384 19.1199 39.1137 19.7777 38.6741C20.4355 38.2346 21.2089 38 22 38C23.0609 38 24.0783 38.4214 24.8284 39.1716C25.5786 39.9217 26 40.9391 26 42ZM44 42C44 42.7911 43.7654 43.5645 43.3259 44.2223C42.8864 44.8801 42.2616 45.3928 41.5307 45.6955C40.7998 45.9983 39.9956 46.0775 39.2196 45.9231C38.4437 45.7688 37.731 45.3878 37.1716 44.8284C36.6122 44.269 36.2312 43.5563 36.0769 42.7804C35.9225 42.0044 36.0017 41.2002 36.3045 40.4693C36.6072 39.7384 37.1199 39.1137 37.7777 38.6741C38.4355 38.2346 39.2089 38 40 38C41.0609 38 42.0783 38.4214 42.8284 39.1716C43.5786 39.9217 44 40.9391 44 42Z" fill="white"/>
</g>
<defs>
<clipPath id="clip0">
<rect width="50" height="50" fill="white"/>
</clipPath>
</defs>
</svg>
